<svg width="20" height="16" viewBox="0 0 20 16" fill="none" xmlns="http://www.w3.org/2000/svg">
<path d="M3.57143 10.4615C2.22857 10.4615 0.942857 9.99385 0 9.16308V14.1538C0 15.1754 0.957143 16 2.14286 16H17.8571C19.0429 16 20 15.1754 20 14.1538V9.16308C19.0571 9.99385 17.7714 10.4615 16.4286 10.4615H3.57143Z" fill="white"/>
<path d="M9.28571 8H10.7143V9.23077H9.28571V8Z" fill="white"/>
<path d="M17.8571 2.46154H15V1.84615C15 0.824615 14.0429 0 12.8571 0H7.14286C5.95714 0 5 0.824615 5 1.84615V2.46154H2.14286C0.957143 2.46154 0 3.28615 0 4.30769V6.15385C0 7.85231 1.6 9.23077 3.57143 9.23077H7.85714V8C7.85714 7.32308 8.5 6.76923 9.28571 6.76923H10.7143C11.5 6.76923 12.1429 7.32308 12.1429 8V9.23077H16.4286C18.4 9.23077 20 7.85231 20 6.15385V4.30769C20 3.28615 19.0429 2.46154 17.8571 2.46154ZM6.42857 1.84615C6.42857 1.50769 6.75 1.23077 7.14286 1.23077H12.8571C13.25 1.23077 13.5714 1.50769 13.5714 1.84615V2.46154H6.42857V1.84615Z" fill="white"/>
</svg>
