<svg width="22" height="22" viewBox="0 0 22 22" fill="none" xmlns="http://www.w3.org/2000/svg">
<path d="M6.55556 10.1H8.33333V11.9H6.55556V10.1ZM6.55556 13.7H8.33333V15.5H6.55556V13.7ZM10.1111 10.1H11.8889V11.9H10.1111V10.1ZM10.1111 13.7H11.8889V15.5H10.1111V13.7ZM13.6667 10.1H15.4444V11.9H13.6667V10.1ZM13.6667 13.7H15.4444V15.5H13.6667V13.7Z" fill="#333333"/>
<path d="M4.77778 20H17.2222C18.2027 20 19 19.1927 19 18.2V5.6C19 4.6073 18.2027 3.8 17.2222 3.8H15.4444V2H13.6667V3.8H8.33333V2H6.55556V3.8H4.77778C3.79733 3.8 3 4.6073 3 5.6V18.2C3 19.1927 3.79733 20 4.77778 20ZM17.2222 7.4L17.2231 18.2H4.77778V7.4H17.2222Z" fill="#333333"/>
</svg>
