<svg width="20" height="20" viewBox="0 0 20 20" fill="none" xmlns="http://www.w3.org/2000/svg">
<path d="M17.2911 12.4863C17.0409 12.0619 16.6105 11.8084 16.1403 11.8084C15.6959 11.8084 15.2927 12.03 15.0343 12.4159L14.531 13.1681V6.53719C14.5312 4.03563 12.6228 2 10.2771 2C7.93153 2 6.02304 4.03563 6.02304 6.5375V8.93125C5.63689 8.58156 5.152 8.39094 4.63987 8.39094C4.06797 8.39094 3.53035 8.62844 3.12603 9.05969C2.29132 9.95 2.29132 11.3988 3.12603 12.2891L5.69461 15.0288H14.5313V15.0275L16.3732 14.6866C16.8206 14.6038 17.1977 14.29 17.3823 13.8478C17.5668 13.4053 17.5329 12.8959 17.2911 12.4863ZM16.5792 13.4659C16.513 13.6244 16.3832 13.7325 16.2229 13.7622L15.0715 13.9753L15.7504 12.9603C15.8415 12.8241 15.9839 12.7456 16.1406 12.7456C16.3094 12.7456 16.4576 12.8328 16.5473 12.985C16.634 13.1319 16.6454 13.3072 16.5792 13.4659Z" fill="black"/>
<path d="M6.02304 15.9659H14.5313V18H6.02304V15.9659Z" fill="black"/>
</svg>
