<svg width="79" height="89" viewBox="0 0 79 89" fill="none" xmlns="http://www.w3.org/2000/svg">
<path d="M78.2822 40.7146C78.894 42.0634 78.6307 43.7327 77.6288 44.9707C77.0309 45.7085 76.2092 46.2781 75.2212 46.6538C75.2766 46.7508 75.3321 46.8477 75.3875 46.9465C75.9716 48.2262 75.6528 49.7411 74.6074 50.5619C74.552 50.5896 74.5104 50.6311 74.4549 50.6588C75.3182 51.3689 75.9439 52.2015 76.3062 53.1073C76.9754 54.7904 76.6131 56.6396 75.4014 57.6819C74.7896 58.2238 74.0095 58.5166 73.1323 58.5719C72.9225 60.0454 71.5583 61.2142 69.9446 61.3111H69.7367C68.6933 61.3111 67.6063 60.8938 66.5906 60.1146C66.159 59.7803 65.7551 59.4046 65.365 59.0308C65.0997 58.7796 64.8363 58.5304 64.571 58.3069C61.9535 56.1096 58.1402 55.8169 54.1011 55.7477C52.7369 56.4577 47.4326 59.2108 40.8473 62.1161C39.7484 71.2673 37.9229 81.085 35.0143 88.1338C34.8064 88.6757 34.2758 88.9961 33.7333 88.9961C33.5531 88.9961 33.371 88.9546 33.2047 88.8853C32.4939 88.5926 32.1612 87.7877 32.4523 87.0776C35.2084 80.4165 36.9349 70.9607 38.0357 62.0746C31.4643 59.1672 26.1877 56.428 24.8651 55.7477C20.828 55.8169 17.0265 56.1234 14.4387 58.3069C14.1595 58.5284 13.8962 58.7796 13.6447 59.0308C13.2408 59.4065 12.8508 59.7823 12.4192 60.1146C11.3896 60.8938 10.3026 61.3111 9.25915 61.3111H9.04928C7.4475 61.2142 6.06945 60.0454 5.86156 58.5719C4.98444 58.5166 4.20434 58.2238 3.59254 57.6819C2.38081 56.6396 2.02046 54.8043 2.6877 53.1212C3.05003 52.2035 3.68955 51.3689 4.53895 50.6588C4.48351 50.6311 4.44194 50.5896 4.3865 50.5481C3.34306 49.7411 3.02231 48.2262 3.62026 46.9465C3.66184 46.8496 3.71727 46.7527 3.77271 46.6538C2.78472 46.2781 1.96304 45.7085 1.37895 44.9707C0.363239 43.7327 0.111786 42.0496 0.72557 40.7146C0.767149 40.6177 0.822588 40.4634 0.919605 40.3111C0.864167 40.2419 0.808728 40.1727 0.767149 40.1034C0.014768 39.1027 -0.193127 37.8784 0.183064 36.8362C0.628552 35.6534 1.75514 34.8485 3.37078 34.5558C5.34875 34.1938 7.38018 34.5558 9.1067 35.515C9.30073 35.2223 9.56605 34.9592 9.85908 34.7496C10.9857 33.9842 12.629 34.0673 13.8408 34.9711C14.0922 35.1649 14.3278 35.3884 14.5377 35.6396C15.0109 35.1254 15.6247 34.7773 16.2919 34.6665C16.2919 34.5281 16.3058 34.3877 16.3197 34.2631C16.5276 32.6907 17.5175 31.4269 18.8679 31.0512C20.3152 30.6477 21.9863 31.3854 22.8357 32.8035C23.3782 33.6935 23.7266 34.5281 23.8652 35.3212C25.3542 36.0866 26.2174 37.7558 26.3303 39.2708C26.4412 41.0646 25.7046 42.72 25.0493 43.972C24.9107 44.237 24.7701 44.5 24.6176 44.7651C24.1167 45.6828 23.6435 46.5451 23.4059 47.4351C22.9188 49.2566 23.4752 51.3155 24.7839 52.6643L25.7442 53.0539C25.7858 53.0678 25.8274 53.0955 25.869 53.1231C25.869 53.1231 25.9383 53.1508 26.0353 53.2201C27.0233 53.7343 32.0068 56.3351 38.3565 59.185C39.6237 47.6566 39.8316 37.7558 39.8454 37.2119V37.1981C39.8454 37.1012 39.8593 37.0043 39.8731 36.9054L40.0117 35.7227C39.3425 33.3592 37.3388 31.3973 34.9589 30.7861C33.8026 30.5073 32.5651 30.4934 31.2425 30.4796C30.8802 30.4796 30.504 30.4796 30.1437 30.4657C28.4449 30.4242 26.2729 30.2284 24.477 29.0477C22.9446 28.0469 21.7071 26.1562 21.8457 24.1527C21.0656 23.5415 20.3568 22.6515 19.7014 21.5104C18.7689 19.8549 18.949 17.7842 20.1608 16.5738C21.2735 15.4623 23.1406 15.1696 24.7958 15.8361C25.0334 15.933 25.2552 16.0299 25.465 16.1565C26.0075 15.3496 26.9262 14.8215 27.9439 14.6969C27.7222 14.2242 27.5816 13.7377 27.5123 13.2373C27.2906 11.5404 28.1103 9.85728 29.5041 9.16308C29.9635 8.94157 30.4644 8.815 30.9792 8.82884C30.896 6.36651 31.7039 3.90615 33.3037 1.97386C34.5154 0.500418 35.9627 -0.181916 37.3962 0.0415731C38.6357 0.235395 39.7345 1.1254 40.3206 2.43271C40.3899 2.59884 40.4592 2.76695 40.5146 2.91924C40.78 2.9054 41.0433 2.91924 41.2809 2.94693C42.9797 3.08537 44.524 4.29577 45.2071 6.0204C45.6665 7.16157 45.7496 8.46888 45.4724 9.84542C45.7378 9.81773 46.0011 9.81773 46.2664 9.83157C47.8405 9.94233 49.1611 11.0974 49.3987 12.557C49.4264 12.7923 49.4403 13.0158 49.4264 13.2254C50.7906 12.6143 52.1825 12.377 53.4635 12.5451C55.5108 12.824 57.2096 14.2559 57.5699 16.0359C57.7798 17.0228 57.5977 18.0512 57.069 19.0401C57.1383 19.0816 57.2076 19.137 57.2769 19.1786C58.6272 20.207 59.0311 22.2243 58.2095 23.8797C57.6392 25.0348 56.5522 25.9801 55.0633 26.6189C54.4238 26.8978 53.7962 27.0916 53.1843 27.2716C52.7527 27.4101 52.3211 27.5366 51.9033 27.7028C47.8523 29.2454 45.1933 33.2504 42.6173 37.6312C42.5896 39.6762 42.3382 48.5624 41.2254 58.9081C47.5454 56.0582 52.3765 53.5266 53.0576 53.1508C53.1131 53.1231 53.1408 53.1093 53.1408 53.1093C53.1824 53.0955 53.2101 53.0678 53.2517 53.0539L54.2119 52.6643C55.5207 51.3155 56.077 49.2566 55.59 47.4351C55.3524 46.5451 54.8792 45.6828 54.3783 44.7651C54.2258 44.5 54.0852 44.237 53.9466 43.972C53.2932 42.72 52.5547 41.0646 52.6795 39.2708C52.7765 37.7558 53.6397 36.0866 55.1287 35.3212C55.2811 34.5281 55.6157 33.6935 56.1582 32.8035C57.0076 31.3854 58.6787 30.6477 60.126 31.0512C61.4764 31.4269 62.4782 32.6927 62.6742 34.2631C62.6881 34.3877 62.702 34.5281 62.702 34.6527C63.3712 34.7773 63.983 35.1254 64.4562 35.6396C64.6641 35.3884 64.9017 35.1669 65.167 34.9711C66.3649 34.0673 68.0062 33.9842 69.1348 34.7496C69.4417 34.9573 69.6912 35.2223 69.9011 35.515C71.6137 34.5558 73.6451 34.1938 75.6231 34.5558C77.2388 34.8485 78.3653 35.6534 78.8108 36.8362C79.2009 37.8784 78.9791 39.1027 78.2268 40.1034C78.1852 40.1727 78.1297 40.2419 78.0743 40.3111C78.1713 40.4654 78.2406 40.6177 78.2822 40.7146Z" fill="white"/>
</svg>
