<svg width="30" height="30" viewBox="0 0 30 30" fill="none" xmlns="http://www.w3.org/2000/svg">
<circle cx="15" cy="15" r="15" fill="#333333"/>
<path d="M23.4511 11.7867C23.4511 11.7867 23.28 10.52 22.7511 9.96222C22.08 9.23111 21.3289 9.22667 20.9867 9.18445C18.5178 9 14.82 9 14.82 9H14.8111C14.8111 9 11.1089 8.99778 8.64222 9.18445C8.29778 9.22667 7.54667 9.23111 6.87556 9.96222C6.34889 10.5178 6.17556 11.7867 6.17556 11.7867C6.17556 11.7867 6 13.2733 6 14.76V16.1533C6 17.6422 6.17556 19.1289 6.17556 19.1289C6.17556 19.1289 6.34889 20.3956 6.87556 20.9533C7.54667 21.6844 8.42889 21.6622 8.82 21.7378C10.2311 21.8778 14.8133 21.9222 14.8133 21.9222C14.8133 21.9222 18.5156 21.9156 20.9844 21.7311C21.3267 21.6889 22.08 21.6844 22.7489 20.9533C23.2778 20.3956 23.4489 19.1289 23.4489 19.1289C23.4489 19.1289 23.6267 17.6422 23.6267 16.1533V14.76C23.6267 13.2733 23.4489 11.7844 23.4489 11.7844L23.4511 11.7867ZM17.7556 15.2733L12.9933 17.8467V13.8867V12.6822L15.14 13.8511L17.7556 15.2733Z" fill="white"/>
</svg>
